 <svg  version="1.0" xmlns="http://www.w3.org/2000/svg"  width="300.000000pt" height="39.000000pt" viewBox="0 0 300.000000 39.000000"  preserveAspectRatio="xMidYMid meet">  <g transform="translate(0.000000,39.000000) scale(0.100000,-0.100000)" fill="#ffffff" stroke="none"> <path d="M570 211 l0 -66 -41 63 c-27 40 -48 62 -61 62 -17 0 -19 -7 -16 -87 2 -70 6 -88 18 -88 12 0 15 13 14 63 0 34 0 62 1 62 2 0 21 -28 44 -63 59 -91 71 -86 71 28 0 75 -3 92 -15 92 -12 0 -15 -14 -15 -66z"/> <path d="M1021 266 c-27 -15 -50 -52 -51 -79 -1 -50 65 -109 105 -94 9 4 19 -2 25 -13 6 -11 20 -20 30 -20 26 0 26 16 0 30 l-21 11 21 26 c59 75 -28 186 -109 139z m79 -36 c11 -11 20 -31 20 -45 0 -30 -32 -65 -59 -65 -30 0 -51 28 -51 65 0 60 50 85 90 45z"/> <path d="M1219 272 c-4 -44 5 -150 14 -159 7 -7 27 -15 44 -19 26 -5 37 -1 57 19 23 23 26 35 26 92 0 58 -2 65 -20 65 -18 0 -20 -7 -20 -69 0 -61 -2 -70 -20 -76 -36 -11 -50 12 -50 80 0 47 -4 64 -15 69 -8 3 -15 2 -16 -2z"/> <path d="M1741 193 c-17 -47 -31 -89 -31 -94 0 -20 18 -8 24 16 5 21 12 25 46 25 34 0 42 -4 50 -25 5 -14 14 -25 21 -25 6 0 9 4 7 8 -1 4 -16 45 -32 89 -16 45 -35 84 -41 87 -8 3 -24 -26 -44 -81z m68 -25 c1 -5 -12 -8 -29 -8 -19 0 -28 4 -25 13 2 6 10 26 16 42 l11 30 13 -35 c8 -19 14 -38 14 -42z"/> <path d="M1920 210 c0 -62 3 -74 25 -95 28 -29 55 -32 83 -8 17 15 22 31 23 88 1 39 -2 72 -7 75 -5 3 -10 -27 -12 -67 -3 -79 -16 -99 -56 -89 -28 7 -39 41 -35 113 2 30 -1 48 -9 51 -9 3 -12 -16 -12 -68z"/> <path d="M2146 264 c-9 -8 -16 -27 -16 -40 0 -20 9 -29 45 -44 44 -19 60 -49 34 -65 -16 -11 -59 4 -59 20 0 8 -7 15 -15 15 -8 0 -15 -4 -15 -10 0 -19 40 -50 65 -50 23 0 65 31 65 48 0 20 -33 52 -65 62 -23 8 -35 18 -35 30 0 27 37 36 61 14 10 -9 22 -14 27 -10 10 10 -36 46 -58 46 -10 0 -26 -7 -34 -16z"/> <path d="M2363 273 c-35 -2 -63 -8 -63 -13 0 -5 14 -7 30 -3 l30 6 0 -87 c0 -51 4 -86 10 -86 6 0 10 35 10 86 l0 86 25 -6 c18 -5 25 -2 25 9 0 8 -1 14 -2 13 -2 -1 -31 -3 -65 -5z"/> <path d="M2500 275 c-6 -58 1 -180 9 -183 7 -2 11 27 11 92 0 57 -4 96 -10 96 -5 0 -10 -2 -10 -5z"/> <path d="M2594 267 c-3 -8 -4 -49 -2 -93 4 -97 23 -99 22 -1 0 37 0 67 1 67 1 0 23 -34 49 -75 26 -41 52 -75 57 -75 5 0 9 43 9 95 0 111 -18 130 -22 23 l-3 -71 -48 71 c-26 40 -50 72 -52 72 -3 0 -8 -6 -11 -13z"/> <path d="M270 183 l0 -88 57 1 c69 2 87 24 19 24 -44 0 -46 1 -46 28 0 26 2 27 40 24 32 -3 40 -1 40 12 0 12 -10 16 -40 16 -36 0 -40 3 -40 25 0 23 4 25 45 25 25 0 45 5 45 10 0 6 -27 10 -60 10 l-60 0 0 -87z"/> <path d="M677 183 c1 -72 4 -89 17 -91 13 -3 16 5 16 37 0 53 22 54 42 3 10 -27 21 -38 37 -39 l22 -2 -21 36 c-19 32 -19 37 -5 53 18 20 20 61 3 78 -7 7 -35 12 -62 12 l-51 0 2 -87z m81 58 c23 -14 10 -46 -21 -49 -24 -3 -27 0 -27 27 0 32 19 41 48 22z"/> <path d="M870 179 c0 -79 2 -90 17 -87 13 2 16 18 17 90 1 78 -1 88 -16 88 -16 0 -18 -11 -18 -91z"/> <path d="M1430 183 l0 -88 57 1 c69 2 87 24 19 24 -42 0 -46 2 -46 25 0 23 4 25 40 25 29 0 40 4 40 15 0 11 -11 15 -40 15 -36 0 -40 3 -40 25 0 23 4 25 45 25 25 0 45 5 45 10 0 6 -27 10 -60 10 l-60 0 0 -87z"/> </g> </svg> 